# xmcd
#
# Track frame offsets: 
#        150
#        12510
#        24810
#        43625
#        54965
#        72835
#        91230
#        103660
#        118125
#        132455
#        151860
#        167085
#        182740
#        194350
#        215325
#        229220
#
# Disc length: 3279 seconds
#
# Revision: 0
# Processed by: cddbd v1.5.2PL0 Copyright (c) Steve Scherf et al.
# Submitted via: ExactAudioCopyFreeDBPlugin 1.0
#
DISCID=d30ccd10
DTITLE=Various Artist - Circuito Universitário de Rodeio Cowboy Forev
DTITLE=er
DYEAR=1997
DGENRE=Country
TTITLE0=Bob Woodruff - Out Of The Blue
TTITLE1=Mark Cavalla - Little Bitty
TTITLE2=L. K. Ranger - Karma Camaleon
TTITLE3=Caryl Mack Parker - It's Good To Be Me
TTITLE4=Bryan Smith - Jack Of All Trades
TTITLE5=The Bellamy Brothers - Cowboy Beat
TTITLE6=July Fell - Try To Think About Elvis
TTITLE7=Steve McBrian - C'est La Vie
TTITLE8=Cristie Gardyn - Better Thing To Do
TTITLE9=Doug Wayne/Vic Vince - Unbreak My Heart
TTITLE10=Doug Wayne - Knockin' On Heaven's Door
TTITLE11=Banda Sexxus - A Vizinha
TTITLE12=Vera Negri - Um Certo Estranho
TTITLE13=Jhênnia - Seja Eu Seja Você
TTITLE14=Jayne - Cowboy Radical
TTITLE15=Juliano César - Cowboy De Coração
EXTD=
EXTT0=
EXTT1=
EXTT2=
EXTT3=
EXTT4=
EXTT5=
EXTT6=
EXTT7=
EXTT8=
EXTT9=
EXTT10=
EXTT11=
EXTT12=
EXTT13=
EXTT14=
EXTT15=
PLAYORDER=
